<?xml version="1.0" encoding="UTF-8" standalone="no"?>
<!-- Created with Inkscape (http://www.inkscape.org/) -->

<svg
   xmlns:dc="http://purl.org/dc/elements/1.1/"
   xmlns:cc="http://creativecommons.org/ns#"
   xmlns:rdf="http://www.w3.org/1999/02/22-rdf-syntax-ns#"
   xmlns:svg="http://www.w3.org/2000/svg"
   xmlns="http://www.w3.org/2000/svg"
   xmlns:sodipodi="http://sodipodi.sourceforge.net/DTD/sodipodi-0.dtd"
   xmlns:inkscape="http://www.inkscape.org/namespaces/inkscape"
   width="10mm"
   height="10mm"
   viewBox="0 0 10 10"
   version="1.1"
   id="svg8"
   inkscape:version="0.92.4 (5da689c313, 2019-01-14)"
   sodipodi:docname="logo.svg">
  <defs
     id="defs2" />
  <sodipodi:namedview
     id="base"
     pagecolor="#ffffff"
     bordercolor="#666666"
     borderopacity="1.0"
     inkscape:pageopacity="0.0"
     inkscape:pageshadow="2"
     inkscape:zoom="7.9195959"
     inkscape:cx="31.328586"
     inkscape:cy="31.495742"
     inkscape:document-units="mm"
     inkscape:current-layer="g4538"
     showgrid="false"
     inkscape:window-width="1315"
     inkscape:window-height="987"
     inkscape:window-x="4994"
     inkscape:window-y="242"
     inkscape:window-maximized="0" />
  <metadata
     id="metadata5">
    <rdf:RDF>
      <cc:Work
         rdf:about="">
        <dc:format>image/svg+xml</dc:format>
        <dc:type
           rdf:resource="http://purl.org/dc/dcmitype/StillImage" />
        <dc:title></dc:title>
      </cc:Work>
    </rdf:RDF>
  </metadata>
  <g
     inkscape:label="Layer 1"
     inkscape:groupmode="layer"
     id="layer1"
     transform="translate(0,-287)">
    <g
       id="g4538"
       transform="translate(-0.05616124,0.019575)">
      <g
         id="text4524"
         style="font-style:normal;font-weight:normal;font-size:10.58333302px;line-height:1.25;font-family:sans-serif;letter-spacing:0px;word-spacing:0px;fill:#5f5f5f;fill-opacity:1;stroke:none;stroke-width:0.26458332"
         aria-label="N"
         transform="matrix(1.0143242,0,0,0.87842891,-0.13965354,36.070059)">
        <path
           id="path4531"
           style="font-style:normal;font-variant:normal;font-weight:bold;font-stretch:normal;font-family:sans-serif;-inkscape-font-specification:'sans-serif Bold';fill:#5f5f5f;fill-opacity:1;stroke-width:0.26458332"
           d="M 9.7495015,296.69931 H 7.8374736 l -3.2659504,-5.28133 v 5.28133 H 2.7525128 v -7.69462 H 5.124461 l 2.8060302,4.408 v -4.408 h 1.8190103 z"
           inkscape:connector-curvature="0" />
      </g>
      <g
         id="text4520"
         style="font-style:normal;font-weight:normal;font-size:10.58333302px;line-height:1.25;font-family:sans-serif;letter-spacing:0px;word-spacing:0px;fill:#000000;fill-opacity:1;stroke:none;stroke-width:0.26458332"
         aria-label="S">
        <path
           id="path4528"
           style="font-style:normal;font-variant:normal;font-weight:bold;font-stretch:normal;font-family:sans-serif;-inkscape-font-specification:'sans-serif Bold';stroke-width:0.26458332"
           d="m 6.9412306,292.67722 q 0,1.13688 -0.9663492,1.85001 -0.9611817,0.70797 -2.6148274,0.70797 -0.956014,0 -1.6691488,-0.16537 -0.70796706,-0.17053 -1.32808422,-0.42891 v -1.84485 h 0.21704101 q 0.61494951,0.49093 1.37459301,0.75448 0.7648112,0.26355 1.4676107,0.26355 0.1808675,0 0.4754231,-0.031 0.2945557,-0.031 0.4805908,-0.10335 0.2273763,-0.093 0.3720703,-0.23255 0.1498617,-0.13952 0.1498617,-0.41341 0,-0.25321 -0.217041,-0.43408 -0.2118734,-0.18603 -0.6252848,-0.28422 -0.434082,-0.10335 -0.9198405,-0.1912 -0.4805908,-0.093 -0.9043375,-0.23255 -0.9715169,-0.31522 -1.4004313,-0.85266 -0.42374674,-0.5426 -0.42374674,-1.34358 0,-1.07487 0.96118164,-1.75184 0.9663492,-0.68212 2.4804687,-0.68212 0.7596435,0 1.4986164,0.14986 0.7441406,0.14469 1.2867432,0.3669 v 1.7725 H 6.4244663 q -0.4650879,-0.37207 -1.1420491,-0.62012 -0.6717936,-0.25321 -1.3745931,-0.25321 -0.2480468,0 -0.4960937,0.0362 -0.2428792,0.031 -0.4702555,0.12403 -0.2015381,0.0775 -0.3462321,0.23771 -0.144694,0.15503 -0.144694,0.35657 0,0.30489 0.2325439,0.47025 0.232544,0.1602 0.8784993,0.29456 0.4237468,0.0879 0.81132,0.17053 0.3927409,0.0827 0.8423258,0.22738 0.883667,0.28938 1.3022461,0.79064 0.4237467,0.4961 0.4237467,1.29192 z"
           inkscape:connector-curvature="0" />
      </g>
    </g>
  </g>
</svg>
